<?xml version="1.0" encoding="UTF-8" standalone="no"?>
<svg width="21px" height="17px" viewBox="0 0 21 17" version="1.1" xmlns="http://www.w3.org/2000/svg" xmlns:xlink="http://www.w3.org/1999/xlink">
    <!-- Generator: Sketch 3.8.1 (29687) - http://www.bohemiancoding.com/sketch -->
    <title>ic_grind</title>
    <desc>Created with Sketch.</desc>
    <defs></defs>
    <g id="Page-1" stroke="none" stroke-width="1" fill="none" fill-rule="evenodd">
        <path d="M2.5,5 C3.88071187,5 5,3.88071187 5,2.5 C5,1.11928813 3.88071187,0 2.5,0 C1.11928813,0 0,1.11928813 0,2.5 C0,3.88071187 1.11928813,5 2.5,5 Z M10.5,5 C11.8807119,5 13,3.88071187 13,2.5 C13,1.11928813 11.8807119,0 10.5,0 C9.11928813,0 8,1.11928813 8,2.5 C8,3.88071187 9.11928813,5 10.5,5 Z M18.5,5 C19.8807119,5 21,3.88071187 21,2.5 C21,1.11928813 19.8807119,0 18.5,0 C17.1192881,0 16,1.11928813 16,2.5 C16,3.88071187 17.1192881,5 18.5,5 Z M6.5,11 C7.88071187,11 9,9.88071187 9,8.5 C9,7.11928813 7.88071187,6 6.5,6 C5.11928813,6 4,7.11928813 4,8.5 C4,9.88071187 5.11928813,11 6.5,11 Z M14.5,11 C15.8807119,11 17,9.88071187 17,8.5 C17,7.11928813 15.8807119,6 14.5,6 C13.1192881,6 12,7.11928813 12,8.5 C12,9.88071187 13.1192881,11 14.5,11 Z M10.5,17 C11.8807119,17 13,15.8807119 13,14.5 C13,13.1192881 11.8807119,12 10.5,12 C9.11928813,12 8,13.1192881 8,14.5 C8,15.8807119 9.11928813,17 10.5,17 Z" id="ic_grind" fill="#FFFFFF" transform="translate(10.500000, 8.500000) scale(1, -1) translate(-10.500000, -8.500000) "></path>
    </g>
</svg>