<?xml version="1.0" encoding="UTF-8" standalone="no"?>
<svg width="58px" height="58px" viewBox="0 0 58 58" version="1.1" xmlns="http://www.w3.org/2000/svg" xmlns:xlink="http://www.w3.org/1999/xlink">
    <!-- Generator: Sketch 3.8.3 (29802) - http://www.bohemiancoding.com/sketch -->
    <title>ic_inverted</title>
    <desc>Created with Sketch.</desc>
    <defs></defs>
    <g id="Page-1" stroke="none" stroke-width="1" fill="none" fill-rule="evenodd">
        <g id="ic_inverted">
            <path d="M58,29 C58,45.0167032 45.0167032,58 29,58 C12.9832968,58 0,45.0167032 0,29 C0,12.9832968 12.9832968,0 29,0 C45.0167032,0 58,12.9832968 58,29" id="Fill-7" fill="#7ED5FF" opacity="0.6"></path>
            <path d="M53,29 C53,42.2540882 42.2540882,53 29,53 C15.7459118,53 5,42.2540882 5,29 C5,15.7459118 15.7459118,5 29,5 C42.2540882,5 53,15.7459118 53,29" id="Fill-9" fill="#7ED5FF"></path>
            <polygon id="Fill-741" fill="#F6F2E9" transform="translate(29.000000, 24.000000) scale(1, -1) translate(-29.000000, -24.000000) " points="22 35 36 35 36 13 22 13"></polygon>
            <path d="M31,19.8401585 C31,21.0330251 30.1045872,22 29,22 C27.8954128,22 27,21.0330251 27,19.8401585 C27,18.6472919 29,16 29,16 C29,16 31,18.6472919 31,19.8401585" id="Fill-747" fill="#73645E"></path>
            <g id="Group-2" transform="translate(29.000000, 29.000000) scale(-1, -1) translate(-29.000000, -29.000000) translate(19.000000, 12.000000)">
                <polygon id="Stroke-742" stroke="#73645E" stroke-width="1.334" stroke-linecap="round" stroke-linejoin="round" points="3.15789474 33 16.8421053 33 16.8421053 10 3.15789474 10"></polygon>
                <polygon id="Stroke-744" stroke="#73645E" stroke-width="1.334" stroke-linecap="round" stroke-linejoin="round" fill="#F5F2E9" transform="translate(10.000000, 5.000000) scale(1, -1) translate(-10.000000, -5.000000) " points="4.21052632 10 15.7894737 10 15.7894737 0 4.21052632 0"></polygon>
                <polygon id="Fill-748" fill="#73645E" transform="translate(9.842105, 16.000000) scale(1, -1) translate(-9.842105, -16.000000) " points="3 22 16.6842105 22 16.6842105 10 3 10"></polygon>
                <path d="M0.519204704,33 L19.4809904,33" id="Stroke-749" stroke="#73645E" stroke-width="1.334" stroke-linecap="round" stroke-linejoin="round"></path>
                <path d="M1.57072983,0 L18.4295393,0" id="Stroke-750" stroke="#73645E" stroke-width="1.334" stroke-linecap="round" stroke-linejoin="round"></path>
            </g>
        </g>
    </g>
</svg>