<?xml version="1.0" encoding="UTF-8" standalone="no"?>
<svg width="32px" height="32px" viewBox="0 0 32 32" version="1.1" xmlns="http://www.w3.org/2000/svg" xmlns:xlink="http://www.w3.org/1999/xlink">
    <!-- Generator: Sketch 3.7.2 (28276) - http://www.bohemiancoding.com/sketch -->
    <title>ic_tab_start</title>
    <desc>Created with Sketch.</desc>
    <defs></defs>
    <g id="Page-1" stroke="none" stroke-width="1" fill="none" fill-rule="evenodd">
        <g id="ic_tab_start">
            <circle id="Oval-2" fill="#73645E" cx="16" cy="16" r="16"></circle>
            <g id="Group-14" transform="translate(6.000000, 4.000000)" fill="#F5F2E9">
                <path d="M6.30905713,5.0653076 C5.07869673,3.73919554 3.90828027,2.47783462 3.751736,0.651938049 C3.73232968,0.427238705 3.8774458,0.220120799 4.09587466,0.159228992 C6.37891987,-0.478205309 9.06992895,0.83740077 10.4387211,3.40386178 C11.8081601,5.97118043 11.3924337,8.92443305 9.57945255,10.4458706 C9.4323958,10.5691551 9.20814505,10.4685978 9.19499188,10.2777749 C9.03780072,8.0067678 7.65413042,6.51470412 6.30905713,5.0653076" id="Fill-19"></path>
                <path d="M1.53123765,1.5643006 C1.67055576,1.4347526 1.90260401,1.51204595 1.93626327,1.69711451 C2.28734492,3.61856169 3.56283011,4.9702154 4.80510186,6.28550859 C6.22347171,7.78695899 7.56716705,9.21133376 7.49739654,11.4528407 C7.49070927,11.6736166 7.32976899,11.8615156 7.10864328,11.906803 C4.81379531,12.3760063 2.19684387,11.0456898 0.838659445,8.54443374 C-0.526212249,6.03054943 -0.17579933,3.15197117 1.53123765,1.5643006" id="Fill-23"></path>
                <path d="M6.37835037,18.3999821 C8.03507961,17.5857347 9.61113107,16.8113331 10.4490898,15.0927917 C10.5522265,14.8814071 10.4946619,14.6231981 10.3125917,14.4788983 C8.41099449,12.970616 5.38732188,13.2069886 3.13117849,15.17631 C0.874162904,17.1460817 0.14653649,20.1856082 1.27231868,22.3726175 C1.36346278,22.5500096 1.61203758,22.539204 1.69685828,22.3584352 C2.70380427,20.2060938 4.56724309,19.2898686 6.37835037,18.3999821" id="Fill-27"></path>
                <path d="M11.5824568,16.6325147 C11.5024587,16.4663789 11.2577849,16.4541039 11.1559489,16.6090229 C10.0983697,18.2187414 8.40013732,18.9876222 6.74647213,19.7351275 C4.85838357,20.5886635 3.06901132,21.3988137 2.27994941,23.4457762 C2.20217968,23.6472556 2.27972658,23.8737082 2.46780007,23.9926488 C4.41850551,25.2269215 7.35325427,24.9513688 9.56623756,23.174668 C11.7903626,21.3888667 12.5615977,18.6680488 11.5824568,16.6325147" id="Fill-31"></path>
                <path d="M18.0332381,13.7443731 C19.6899674,12.9301258 21.2660188,12.1557241 22.1039776,10.4371828 C22.2071143,10.2257981 22.1495496,9.96758922 21.9674795,9.82328938 C20.0658822,8.31500707 17.0422096,8.55137967 14.7860662,10.5207011 C12.5290506,12.4904728 11.8014242,15.5299993 12.9272064,17.7170086 C13.0183505,17.8944006 13.2669253,17.883595 13.351746,17.7028263 C14.358692,15.5504849 16.2221308,14.6342597 18.0332381,13.7443731" id="Fill-27" transform="translate(17.279888, 13.344391) rotate(-137.000000) translate(-17.279888, -13.344391) "></path>
                <path d="M22.0648828,6.06810562 C21.9848847,5.90196981 21.7402109,5.8896948 21.6383749,6.0446138 C20.5807957,7.65433228 18.8825634,8.42321307 17.2288982,9.17071841 C15.3408096,10.0242544 13.5514374,10.8344046 12.7623754,12.8813671 C12.6846057,13.0828465 12.7621526,13.3092991 12.9502261,13.4282397 C14.9009315,14.6625124 17.8356803,14.3869597 20.0486636,12.6102589 C22.2727887,10.8244576 23.0440237,8.10363972 22.0648828,6.06810562" id="Fill-31" transform="translate(17.607426, 10.060591) rotate(-137.000000) translate(-17.607426, -10.060591) "></path>
            </g>
        </g>
    </g>
</svg>