<?xml version="1.0" encoding="UTF-8" standalone="no"?>
<svg width="8px" height="19px" viewBox="0 0 8 19" version="1.1" xmlns="http://www.w3.org/2000/svg" xmlns:xlink="http://www.w3.org/1999/xlink">
    <!-- Generator: Sketch 3.7.2 (28276) - http://www.bohemiancoding.com/sketch -->
    <title>ic_temp</title>
    <desc>Created with Sketch.</desc>
    <defs></defs>
    <g id="Page-1" stroke="none" stroke-width="1" fill="none" fill-rule="evenodd">
        <path d="M5.53846154,11.6093496 L5.53846154,10.1923077 L6.46153846,10.1923077 C6.97133977,10.1923077 7.38461538,9.77903208 7.38461538,9.26923077 C7.38461538,8.75942946 6.97133977,8.34615385 6.46153846,8.34615385 L5.53846154,8.34615385 L5.53846154,7.42307692 L6.46153846,7.42307692 C6.97133977,7.42307692 7.38461538,7.00980131 7.38461538,6.5 C7.38461538,5.99019869 6.97133977,5.57692308 6.46153846,5.57692308 L5.53846154,5.57692308 L5.53846154,4.65384615 L6.46153846,4.65384615 C6.97133977,4.65384615 7.38461538,4.24057054 7.38461538,3.73076923 C7.38461538,3.22096792 6.97133977,2.80769231 6.46153846,2.80769231 L5.53846154,2.80769231 L5.53846154,2.34615385 C5.53846154,1.32655123 4.71191031,0.5 3.69230769,0.5 C2.67270508,0.5 1.84615385,1.32655123 1.84615385,2.34615385 L1.84615385,11.6093496 C0.742520547,12.247767 0,13.4410172 0,14.8076923 C0,16.8468975 1.65310246,18.5 3.69230769,18.5 C5.73151292,18.5 7.38461538,16.8468975 7.38461538,14.8076923 C7.38461538,13.4410172 6.64209484,12.247767 5.53846154,11.6093496 Z" id="ic_temp" fill="#FFFFFF"></path>
    </g>
</svg>