<?xml version="1.0" encoding="UTF-8" standalone="no"?>
<svg width="32px" height="32px" viewBox="0 0 32 32" version="1.1" xmlns="http://www.w3.org/2000/svg" xmlns:xlink="http://www.w3.org/1999/xlink">
    <!-- Generator: Sketch 3.7.2 (28276) - http://www.bohemiancoding.com/sketch -->
    <title>ic_tab_history</title>
    <desc>Created with Sketch.</desc>
    <defs></defs>
    <g id="Page-1" stroke="none" stroke-width="1" fill="none" fill-rule="evenodd">
        <g id="ic_tab_history">
            <circle id="Oval-2" fill="#73645E" cx="16" cy="16" r="16"></circle>
            <g id="Group-12" transform="translate(3.000000, 4.000000)">
                <path d="M19.6875,10.78125 C19.6875,14.664917 16.5403268,17.8125 12.6571654,17.8125 C8.77400404,17.8125 5.625,14.664917 5.625,10.78125 C5.625,6.89758301 8.77400404,3.75 12.6571654,3.75 C16.5403268,3.75 19.6875,6.89758301 19.6875,10.78125" id="Fill-688" fill="#73645E"></path>
                <g id="Group-6">
                    <path d="M24.3597927,14.5723539 C24.4290384,14.230186 24.7279935,13.9814165 25.0804365,13.9814165 L26.7899655,13.9814165 C27.1954525,13.9814165 27.5239258,13.6559504 27.5239258,13.254447 L27.5239258,11.1027668 C27.5239258,10.7012634 27.1954525,10.3757973 26.7899655,10.3757973 L25.0806584,10.3757973 C24.7277715,10.3757973 24.4290384,10.1265883 24.3597927,9.78420059 C23.233218,4.21150038 18.2539621,0 12.2994955,0 C5.55047866,0 0.0536553433,5.4102968 0.00038940083,12.0807034 C-0.0522107174,18.6462839 5.23066107,24.1183336 11.8573882,24.3495222 C18.0062754,24.5640089 23.2056972,20.2826245 24.3597927,14.5723539 Z" id="Stroke-13" stroke="#F5F2E9" stroke-width="0.9" fill="#F5F2E9"></path>
                    <path d="M12.1875,1.875 C17.8738828,1.875 22.5,6.55520628 22.5,12.308075 C22.5,18.0609436 17.8738828,22.7411499 12.1875,22.7411499 C6.50111718,22.7411499 1.875,18.0609436 1.875,12.308075 C1.875,6.55520628 6.50111718,1.875 12.1875,1.875 L12.1875,1.875 Z" id="Stroke-15" fill="#73645E"></path>
                    <path d="M9.74280911,8.09151673 C12.2546118,6.8555574 15.269535,7.9379942 16.4769348,10.5092106 C17.6843345,13.0801982 16.6269098,16.1666646 14.1151071,17.4026239 C11.6035279,18.6385832 8.58838119,17.5561464 7.38098145,14.98493" id="Stroke-17" stroke="#F5F2E9" stroke-width="1.3" stroke-linecap="round"></path>
                    <polyline id="Stroke-11" stroke="#F5F2E9" stroke-width="1.3" stroke-linecap="round" stroke-linejoin="round" points="11.25 9.375 9.375 7.91219518 10.5741801 5.625"></polyline>
                </g>
            </g>
        </g>
    </g>
</svg>