<?xml version="1.0" encoding="UTF-8" standalone="no"?>
<svg width="58px" height="58px" viewBox="0 0 58 58" version="1.1" xmlns="http://www.w3.org/2000/svg" xmlns:xlink="http://www.w3.org/1999/xlink">
    <!-- Generator: Sketch 3.7.2 (28276) - http://www.bohemiancoding.com/sketch -->
    <title>ic_chemex</title>
    <desc>Created with Sketch.</desc>
    <defs></defs>
    <g id="Page-1" stroke="none" stroke-width="1" fill="none" fill-rule="evenodd">
        <g id="ic_chemex">
            <path d="M58,29 C58,45.0167032 45.0167032,58 29,58 C12.9832968,58 0,45.0167032 0,29 C0,12.9832968 12.9832968,0 29,0 C45.0167032,0 58,12.9832968 58,29" id="Fill-5" fill="#FABA5D" opacity="0.6"></path>
            <path d="M53,29 C53,42.2540882 42.2540882,53 29,53 C15.7459118,53 5,42.2540882 5,29 C5,15.7459118 15.7459118,5 29,5 C42.2540882,5 53,15.7459118 53,29" id="Fill-11" fill="#FABA5D"></path>
            <g id="Group-3" transform="translate(14.000000, 10.000000)">
                <path d="M19.7596735,13.8602979 L27.0324947,0 L1.96837519,0 L9.24119639,13.8602979 L0.686460706,29.2242138 C-0.0571693123,31.0873493 -0.200711836,33.133223 0.275769597,35.0797825 C1.26860539,39.1417356 4.92096515,42 9.11559668,42 L19.8832796,42 C24.0799048,42 27.7302709,39.1417356 28.7251003,35.0797825 C29.1995881,33.133223 29.0580392,31.0873493 28.3144092,29.2242138 L19.7596735,13.8602979 L19.7596735,13.8602979 Z" id="Stroke-736" stroke="#73645E" stroke-width="1.216" stroke-linecap="round" stroke-linejoin="round" fill="#F5F2E9"></path>
                <path d="M24.7160209,6 L4.28377473,6 C3.36002124,6 2.7378585,6.92892952 3.10904712,7.75877322 L5.37203227,12.8100855 C5.52177313,13.1465644 5.51544605,13.530522 5.35094201,13.860808 L3.21028038,18.1978767 C2.79902026,19.031849 3.421183,20 4.36602675,20 L24.6337689,20 C25.5807217,20 26.2007754,19.031849 25.7895153,18.1978767 L23.6488536,13.860808 C23.4864586,13.530522 23.4780225,13.1465644 23.6298724,12.8100855 L25.8907485,7.75877322 C26.2619372,6.92892952 25.6418834,6 24.7160209,6" id="Fill-737" fill="#73645E"></path>
                <path d="M26,13 L3,13" id="Stroke-738" stroke="#73645E" stroke-width="1.216" stroke-linecap="round" stroke-linejoin="round"></path>
                <path d="M0,35 L0,35 C1.01205326,39.108783 4.73510862,42 9.01093203,42 L19.9870357,42 C24.2648914,42 27.9859145,39.108783 29,35" id="Fill-739" fill="#73645E"></path>
                <path d="M17,28.8401585 C17,30.0330251 16.1045872,31 15,31 C13.8954128,31 13,30.0330251 13,28.8401585 C13,27.6472919 15,25 15,25 C15,25 17,27.6472919 17,28.8401585" id="Fill-740" fill="#73645E"></path>
            </g>
        </g>
    </g>
</svg>