<?xml version="1.0" encoding="UTF-8" standalone="no"?>
<svg width="28px" height="21px" viewBox="0 0 28 21" version="1.1" xmlns="http://www.w3.org/2000/svg" xmlns:xlink="http://www.w3.org/1999/xlink">
    <!-- Generator: Sketch 3.8.3 (29802) - http://www.bohemiancoding.com/sketch -->
    <title>ic_worst</title>
    <desc>Created with Sketch.</desc>
    <defs></defs>
    <g id="Page-1" stroke="none" stroke-width="1" fill="none" fill-rule="evenodd">
        <g id="ic_worst" transform="translate(-2.000000, 1.000000)">
            <g id="ic_back" transform="translate(7.500000, 7.500000) rotate(90.000000) translate(-7.500000, -7.500000) " stroke="#FFFFFF" stroke-width="2" stroke-linecap="round">
                <polyline id="Rectangle-1" transform="translate(5.449747, 7.692388) rotate(-315.000000) translate(-5.449747, -7.692388) " points="8.44974747 10.6923882 2.44974747 10.6923882 2.44974747 4.69238816 2.44974747 4.69238816"></polyline>
                <path d="M12.4978777,2.93715143 L3.65685425,11.7781746" id="Rectangle-1" transform="translate(7.656854, 7.778175) rotate(-315.000000) translate(-7.656854, -7.778175) "></path>
            </g>
            <path d="M20.5462496,17.1943608 L17.0227976,19.0467492 C15.555439,19.8181853 14.5934911,19.1166564 14.8733302,17.4850696 L15.5462496,13.5616482 L12.6957171,10.7830657 C11.508599,9.62591153 11.8785344,8.49426044 13.5167406,8.25621514 L17.4560797,7.68379566 L19.2178057,4.11414891 C19.951485,2.62755221 21.1420655,2.62968223 21.8746936,4.11414891 L23.6364196,7.68379566 L27.5757586,8.25621514 C29.2163155,8.494602 29.5821993,9.62756953 28.3967821,10.7830657 L25.5462496,13.5616482 L26.2191691,17.4850696 C26.4994096,19.1189975 25.5349578,19.8170799 24.0697016,19.0467492 L20.5462496,17.1943608 Z" id="Star-1" fill="#FFFFFF"></path>
        </g>
    </g>
</svg>