<?xml version="1.0" encoding="UTF-8" standalone="no"?>
<svg width="17px" height="18px" viewBox="0 0 17 18" version="1.1" xmlns="http://www.w3.org/2000/svg" xmlns:xlink="http://www.w3.org/1999/xlink">
    <!-- Generator: Sketch 3.8.1 (29687) - http://www.bohemiancoding.com/sketch -->
    <title>ic_coffee</title>
    <desc>Created with Sketch.</desc>
    <defs></defs>
    <g id="Page-1" stroke="none" stroke-width="1" fill="none" fill-rule="evenodd">
        <path d="M9.4635857,7.59796139 C7.61804509,5.6087933 5.86242041,3.71675193 5.62760399,0.977907073 C5.59849452,0.640858058 5.81616869,0.330181199 6.14381199,0.238843489 C9.5683798,-0.717307964 13.6048934,1.25610116 15.6580816,5.10579267 C17.7122401,8.95677064 17.0886505,13.3866496 14.3691788,15.6688059 C14.1485937,15.8537326 13.8122176,15.7028967 13.7924878,15.4166624 C13.5567011,12.0101517 11.4811956,9.77205618 9.4635857,7.59796139 Z M2.29685648,2.3464509 C2.50583365,2.1521289 2.85390602,2.26806892 2.9043949,2.54567177 C3.43101737,5.42784253 5.34424516,7.45532311 7.20765279,9.42826289 C9.33520757,11.6804385 11.3507506,13.8170006 11.2460948,17.179261 C11.2360639,17.5104249 10.9946535,17.7922735 10.6629649,17.8602045 C7.22069297,18.5640094 3.2952658,16.5685348 1.25798917,12.8166506 C-0.789318373,9.04582414 -0.263698995,4.72795676 2.29685648,2.3464509 Z" id="ic_coffee" fill="#FFFFFF"></path>
    </g>
</svg>