<?xml version="1.0" encoding="UTF-8" standalone="no"?>
<svg width="58px" height="58px" viewBox="0 0 58 58" version="1.1" xmlns="http://www.w3.org/2000/svg" xmlns:xlink="http://www.w3.org/1999/xlink">
    <!-- Generator: Sketch 3.7.2 (28276) - http://www.bohemiancoding.com/sketch -->
    <title>ic_drip</title>
    <desc>Created with Sketch.</desc>
    <defs></defs>
    <g id="Page-1" stroke="none" stroke-width="1" fill="none" fill-rule="evenodd">
        <g id="ic_drip">
            <path d="M58,29 C58,45.0167032 45.0167032,58 29,58 C12.9832968,58 0,45.0167032 0,29 C0,12.9832968 12.9832968,0 29,0 C45.0167032,0 58,12.9832968 58,29" id="Fill-3" fill="#F06E9B" opacity="0.6"></path>
            <path d="M53,29 C53,42.2540882 42.2540882,53 29,53 C15.7459118,53 5,42.2540882 5,29 C5,15.7459118 15.7459118,5 29,5 C42.2540882,5 53,15.7459118 53,29" id="Fill-13" fill="#F06E9B"></path>
            <polygon id="Fill-770" fill="#F6F2E9" points="17.6302046 33 23.124184 29.3573466 15 14 43 14 34.875816 29.3573466 40.3697954 33"></polygon>
            <polygon id="Stroke-771" stroke="#73645E" stroke-width="1.334" stroke-linecap="round" stroke-linejoin="round" points="17.6302046 33 23.124184 29.3573466 15 14 43 14 34.875816 29.3573466 40.3697954 33"></polygon>
            <polygon id="Stroke-773" stroke="#73645E" stroke-width="1.334" stroke-linecap="round" stroke-linejoin="round" fill="#F5F2E9" points="34.8574979 51 23.1425021 51 19 37 39 37"></polygon>
            <path d="M31,44.8401585 C31,46.0330251 30.1045872,47 29,47 C27.8954128,47 27,46.0330251 27,44.8401585 C27,43.6472919 29,41 29,41 C29,41 31,43.6472919 31,44.8401585" id="Fill-774" fill="#73645E"></path>
            <path d="M39.1942634,39 C41.2966102,39 43,40.7898793 43,42.9989725 C43,45.2080658 41.2966102,47 39.1942634,47 L37,47" id="Stroke-775" stroke="#73645E" stroke-width="1.334" stroke-linecap="round" stroke-linejoin="round"></path>
            <path d="M19,29 L39,29" id="Stroke-776" stroke="#73645E" stroke-width="1.334" stroke-linecap="round" stroke-linejoin="round"></path>
            <path d="M16.2438635,17 C14.5000778,17 12.5658109,18.4400758 13.0861974,20.0468972 C13.8952512,22.5348176 18.8216785,21.8096016 20.787365,24.9133439" id="Stroke-777" stroke="#73645E" stroke-width="1.334" stroke-linecap="round" stroke-linejoin="round"></path>
        </g>
    </g>
</svg>