<?xml version="1.0" encoding="UTF-8" standalone="no"?>
<svg width="18px" height="18px" viewBox="0 0 18 18" version="1.1" xmlns="http://www.w3.org/2000/svg" xmlns:xlink="http://www.w3.org/1999/xlink">
    <!-- Generator: Sketch 3.8.1 (29687) - http://www.bohemiancoding.com/sketch -->
    <title>ic_machine</title>
    <desc>Created with Sketch.</desc>
    <defs></defs>
    <g id="Page-1" stroke="none" stroke-width="1" fill="none" fill-rule="evenodd">
        <path d="M9.64924146,1.39980677 L10.639366,0 C11.3527373,0.191300793 11.3669513,0.194979655 12.0803226,0.386113227 L12.2378462,2.09343936 C12.7130926,2.36784898 12.8871712,2.46834879 13.3624177,2.74259118 L14.9197611,2.02538043 C15.441997,2.54777875 15.4523648,2.55814645 15.9746008,3.08037755 L15.2573833,4.63770647 C15.5317955,5.11294848 15.6322962,5.28685829 15.9067084,5.7621003 L17.6138832,5.91962245 C17.8051858,6.63315434 17.8088647,6.64720091 18,7.3607328 L16.6003475,8.35084818 L16.6003475,9.64931904 L18,10.6392672 C17.8088647,11.3527991 17.8051858,11.3668457 17.6138832,12.0803775 L15.9067084,12.2378997 C15.6322962,12.7131417 15.5317955,12.8872187 15.2573833,13.3624607 L15.9746008,14.9196225 C15.4523648,15.4420208 15.441997,15.4522213 14.9197611,15.9746196 L13.3624177,15.2574088 C12.8871712,15.5318184 12.7130926,15.6323182 12.2378462,15.9065606 L12.0803226,17.6138868 C11.3669513,17.8050203 11.3527373,17.8088664 10.639366,18 L9.64924146,16.6001932 L8.35075854,16.6001932 L7.36080118,18 C6.64726266,17.8088664 6.63321597,17.8050203 5.91967745,17.6138868 L5.76215383,15.9065606 C5.28690741,15.6323182 5.11282875,15.5318184 4.63758233,15.2574088 L3.08023894,15.9746196 L2.02539924,14.9196225 L2.74261666,13.3624607 C2.46820449,12.8872187 2.36770376,12.7131417 2.09329159,12.2378997 L0.386116814,12.0803775 C0.194814244,11.3668457 0.191135348,11.3527991 0,10.6392672 L1.39965255,9.64931904 L1.39965255,8.35084818 L0,7.3607328 C0.191135348,6.64720091 0.194814244,6.63315434 0.386116814,5.91962245 L2.09329159,5.7621003 C2.36770376,5.28685829 2.46820449,5.11294848 2.74261666,4.63770647 L2.02539924,3.08037755 L3.08023894,2.02538043 L4.63758233,2.74259118 C5.11282875,2.46834879 5.28690741,2.36784898 5.76215383,2.09343936 L5.91967745,0.386113227 C6.63321597,0.194979655 6.64726266,0.191300793 7.36080118,0 L8.35075854,1.39980677 L9.64924146,1.39980677 Z M9.1447,13 C11.2739234,13 13,11.2739234 13,9.1447 C13,7.0154766 11.2739234,5.2894 9.1447,5.2894 C7.0154766,5.2894 5.2894,7.0154766 5.2894,9.1447 C5.2894,11.2739234 7.0154766,13 9.1447,13 Z" id="ic_machine" fill="#FFFFFF"></path>
    </g>
</svg>