<?xml version="1.0" encoding="UTF-8" standalone="no"?>
<svg width="32px" height="32px" viewBox="0 0 32 32" version="1.1" xmlns="http://www.w3.org/2000/svg" xmlns:xlink="http://www.w3.org/1999/xlink">
    <!-- Generator: Sketch 3.7.2 (28276) - http://www.bohemiancoding.com/sketch -->
    <title>ic_tab_settings</title>
    <desc>Created with Sketch.</desc>
    <defs></defs>
    <g id="Page-1" stroke="none" stroke-width="1" fill="none" fill-rule="evenodd">
        <g id="ic_tab_settings">
            <circle id="Oval-2" fill="#73645E" cx="16" cy="16" r="16"></circle>
            <g id="Group-13" transform="translate(4.000000, 4.000000)">
                <path d="M18.24,11.04 C18.24,13.4255575 16.3059854,15.36 13.9209555,15.36 C11.5340146,15.36 9.6,13.4255575 9.6,11.04 C9.6,8.65444248 11.5340146,6.72 13.9209555,6.72 C16.3059854,6.72 18.24,8.65444248 18.24,11.04" id="Fill-692" fill="#73645E"></path>
                <g id="Group-7">
                    <path d="M12.8656553,1.86640902 L14.1858214,0 C15.1369831,0.255067724 15.155935,0.259972873 16.1070967,0.514817636 L16.3171282,2.79125249 C16.9507901,3.15713197 17.182895,3.29113171 17.8165569,3.65678824 L19.8930147,2.70050724 C20.5893293,3.39703833 20.6031531,3.41086193 21.2994677,4.10717006 L20.3431778,6.18360863 C20.7090607,6.81726464 20.8430617,7.04914439 21.2089445,7.68280039 L23.4851776,7.89282994 C23.7402477,8.84420579 23.7451529,8.86293454 24,9.8143104 L22.1337966,11.1344642 L22.1337966,12.8657587 L24,14.1856896 C23.7451529,15.1370655 23.7402477,15.1557942 23.4851776,16.1071701 L21.2089445,16.3171996 C20.8430617,16.9508556 20.7090607,17.1829583 20.3431778,17.8166143 L21.2994677,19.8928299 C20.6031531,20.589361 20.5893293,20.6029617 19.8930147,21.2994928 L17.8165569,20.3432118 C17.182895,20.7090912 16.9507901,20.843091 16.3171282,21.2087475 L16.1070967,23.4851824 C15.155935,23.7400271 15.1369831,23.7451552 14.1858214,24 L12.8656553,22.133591 L11.1343447,22.133591 L9.81440158,24 C8.86301688,23.7451552 8.84428796,23.7400271 7.89290326,23.4851824 L7.68287177,21.2087475 C7.04920987,20.843091 6.81710501,20.7090912 6.18344311,20.3432118 L4.10698526,21.2994928 L2.70053233,19.8928299 L3.65682221,17.8166143 C3.29093933,17.1829583 3.15693834,16.9508556 2.79105545,16.3171996 L0.514822419,16.1071701 C0.259752325,15.1557942 0.254847131,15.1370655 0,14.1856896 L1.8662034,12.8657587 L1.8662034,11.1344642 L0,9.8143104 C0.254847131,8.86293454 0.259752325,8.84420579 0.514822419,7.89282994 L2.79105545,7.68280039 C3.15693834,7.04914439 3.29093933,6.81726464 3.65682221,6.18360863 L2.70053233,4.10717006 L4.10698526,2.70050724 L6.18344311,3.65678824 C6.81710501,3.29113171 7.04920987,3.15713197 7.68287177,2.79125249 L7.89290326,0.514817636 C8.84428796,0.259972873 8.86301688,0.255067724 9.81440158,0 L11.1343447,1.86640902 L12.8656553,1.86640902 L12.8656553,1.86640902 Z" id="Stroke-9" stroke="#F5F2E9" stroke-width="0.9" stroke-linecap="round" stroke-linejoin="round" fill="#F5F2E9"></path>
                    <path d="M11.1074906,11.7378276 C11.5543396,9.90955099 11.9795753,8.17017685 11.1574877,6.4348209 C11.0561915,6.22135454 10.8108932,6.10733839 10.5741882,6.16309078 C8.10141532,6.74648179 6.28355224,9.30832926 6.36505792,12.3320175 C6.446824,15.3567102 8.40217908,17.8233768 10.904117,18.280446 C11.1069698,18.3176142 11.2634711,18.1124354 11.1744138,17.9326214 C10.1166627,15.7931862 10.6189773,13.736375 11.1074906,11.7378276 L11.1074906,11.7378276 Z" id="Stroke-5" fill="#73645E"></path>
                    <path d="M13.5100338,6.15663939 C13.3173168,6.10893306 13.1489483,6.29392196 13.2144825,6.47789584 C13.8972812,8.38614896 13.4522705,10.2398443 13.018139,12.0443108 C12.5223588,14.1043107 12.0535175,16.0577325 13.2810528,18.0456654 C13.402019,18.2413121 13.6442105,18.3308883 13.8667159,18.2616126 C16.1751764,17.5439877 17.8381383,15.0424505 17.7601708,12.1102876 C17.6816852,9.16340685 15.8705591,6.7405344 13.5100338,6.15663939 L13.5100338,6.15663939 Z" id="Stroke-7" fill="#73645E"></path>
                </g>
            </g>
        </g>
    </g>
</svg>