<?xml version="1.0" encoding="UTF-8" standalone="no"?>
<svg width="13px" height="18px" viewBox="0 0 13 18" version="1.1" xmlns="http://www.w3.org/2000/svg" xmlns:xlink="http://www.w3.org/1999/xlink">
    <!-- Generator: Sketch 3.7.2 (28276) - http://www.bohemiancoding.com/sketch -->
    <title>ic_tamp</title>
    <desc>Created with Sketch.</desc>
    <defs></defs>
    <g id="Page-1" stroke="none" stroke-width="1" fill="none" fill-rule="evenodd">
        <path d="M9.30456227,11.1132219 C9.30456227,9.67021277 9.75974681,8.27165653 10.5593953,7.05604103 C11.2377784,6.02336626 11.7263549,5.0300152 11.7263549,4.30509119 C11.7263549,1.9268617 9.37837598,0 6.48206667,0 C3.58751482,0 1.23953591,1.9268617 1.23953591,4.30509119 C1.23953591,5.0300152 1.72811236,6.02336626 2.40649549,7.05604103 C3.20438653,8.27165653 3.65957106,9.67021277 3.65957106,11.1132219 L3.65957106,14.0556611 L1.35033371,15.3938726 C0.870803061,15.6717623 0.482066667,16.3430209 0.482066667,16.8992461 L0.482066667,16.9977904 C0.482066667,17.5512955 0.937827622,18 1.48453996,18 L11.4795934,18 C12.0332441,18 12.4820667,17.5540155 12.4820667,16.9977904 L12.4820667,16.8992461 C12.4820667,16.345741 12.0924423,15.6712477 11.6137996,15.3938726 L9.30456227,14.0556611 L9.30456227,11.1132219 Z" id="ic_tamp" fill="#FFFFFF"></path>
    </g>
</svg>